<?xml version="1.0" encoding="UTF-8"?>
<!DOCTYPE svg PUBLIC "-//W3C//DTD SVG 1.1//EN" "http://www.w3.org/Graphics/SVG/1.1/DTD/svg11.dtd">
<!-- Creator: CorelDRAW 2019 (64-Bit) -->
<svg xmlns="http://www.w3.org/2000/svg" xml:space="preserve" width="77px" height="65px" version="1.1" style="shape-rendering:geometricPrecision; text-rendering:geometricPrecision; image-rendering:optimizeQuality; fill-rule:evenodd; clip-rule:evenodd"
viewBox="0 0 77 65"
 xmlns:xlink="http://www.w3.org/1999/xlink"
 xmlns:xodm="http://www.corel.com/coreldraw/odm/2003">
 <defs>
  <style type="text/css">
   <![CDATA[
    .fil0 {fill:#DE1D23}
    .fil1 {fill:#DE1D23;fill-rule:nonzero}
   ]]>
  </style>
 </defs>
 <g id="Layer_x0020_1">
  <metadata id="CorelCorpID_0Corel-Layer"/>
  <g id="_2706588744896">
   <path class="fil0" d="M15.56 23.07c-1.37,-9.64 4.92,-18.9 13.97,-21.56 5.62,-1.53 12.12,-1.54 17.29,1.49 1.96,1.16 3.24,2.29 4.64,3.93 0.67,0.81 3.07,4.05 3.07,5.52 -0.04,0 -0.08,-0.01 -0.13,-0.02 -0.04,-0.01 -0.08,-0.02 -0.13,-0.04 -0.83,-0.31 -2.39,-1.64 -4.04,-2.51 -1.33,-0.66 -5.92,-2.56 -7.32,-1.88 2.76,1.14 4.97,1.97 7.21,4.01 2.49,2.08 6.37,8.53 6.29,10.22 -0.01,0.23 -0.22,0.08 -0.32,-0.02 -0.65,-0.63 -2.8,-3.04 -3.46,-3.69 -3.46,-3.62 -10.33,-6.88 -15.91,-6.88 0.39,0.56 3.23,1.19 3.9,1.48 3.75,1.51 9.99,5.65 11.18,9.91 0.08,0.12 0.09,0.37 -0.08,0.3 -0.89,-0.29 -2.78,-2.05 -3.84,-2.74 -1.17,-0.82 -2.57,-1.73 -3.91,-2.39 -2.9,-1.36 -12.8,-3.98 -15.01,-0.37 3.15,0 4.97,-1.18 9.1,-0.1 0.95,0.25 4.35,1.16 4.3,2.42 -1.74,0.41 -8.1,-2.01 -12.34,3.58 -4.3,7.12 2.2,12.23 8.07,11.79 1.45,-0.13 3.65,-1.27 4.38,-2.46 0.89,-1.51 1.56,-3.86 0.5,-5.47 -3.61,-5.31 -11.36,0.01 -7.2,3.96 1.37,1.32 2.39,0.01 3.18,0.53 0.17,0.73 -0.84,1.32 -1.62,1.45 -5.45,1.11 -7.92,-8.1 -1.66,-10.63 15.62,-6.32 19.04,23.71 -6.03,16.98 -5.94,-2.15 -12.91,-8.02 -14.08,-16.81z"/>
   <path class="fil0" d="M72.03 41.61l0.01 0.1 0 0.11 0.02 0.11 0.02 0.1 0.02 0.11 0.03 0.1 0.03 0.09 0.04 0.1 0.04 0.1 0.05 0.09 0.05 0.08 0.06 0.09 0.06 0.08 0.06 0.08 0.07 0.08 0.07 0.08 0.07 0.06 0.08 0.07 0.08 0.06 0.08 0.06 0.09 0.06 0.08 0.05 0.1 0.05 0.09 0.04 0.1 0.04 0.1 0.03 0.1 0.03 0.1 0.02 0.1 0.02 0.11 0.02 0.11 0.01 0.1 0 0 -0.32 -0.09 0 -0.09 -0.01 -0.09 -0.01 -0.09 -0.02 -0.08 -0.02 -0.09 -0.02 -0.08 -0.03 -0.08 -0.03 -0.08 -0.04 -0.08 -0.04 -0.08 -0.04 -0.07 -0.05 -0.07 -0.05 -0.07 -0.05 -0.07 -0.06 -0.06 -0.06 -0.06 -0.06 -0.06 -0.07 -0.05 -0.07 -0.05 -0.07 -0.05 -0.07 -0.04 -0.07 -0.04 -0.08 -0.04 -0.08 -0.03 -0.08 -0.03 -0.09 -0.02 -0.08 -0.02 -0.09 -0.02 -0.09 -0.01 -0.09 -0.01 -0.09 0 -0.09 -0.32 0zm2.12 2.12l0.11 0 0.11 -0.01 0.11 -0.02 0.1 -0.02 0.1 -0.02 0.1 -0.03 0.1 -0.03 0.1 -0.04 0.09 -0.04 0.09 -0.05 0.09 -0.05 0.09 -0.06 0.08 -0.06 0.08 -0.06 0.08 -0.07 0.07 -0.06 0.07 -0.08 0.07 -0.08 0.06 -0.08 0.06 -0.08 0.06 -0.09 0.05 -0.08 0.05 -0.09 0.04 -0.1 0.04 -0.1 0.03 -0.09 0.03 -0.1 0.02 -0.11 0.02 -0.1 0.02 -0.11 0 -0.11 0.01 -0.1 -0.32 0 0 0.09 -0.01 0.09 -0.01 0.09 -0.02 0.09 -0.02 0.09 -0.02 0.08 -0.03 0.09 -0.03 0.08 -0.04 0.08 -0.04 0.08 -0.04 0.07 -0.05 0.07 -0.05 0.07 -0.05 0.07 -0.06 0.07 -0.06 0.06 -0.06 0.06 -0.07 0.06 -0.07 0.05 -0.07 0.05 -0.07 0.05 -0.08 0.04 -0.07 0.04 -0.08 0.04 -0.09 0.03 -0.08 0.03 -0.09 0.02 -0.08 0.02 -0.09 0.02 -0.09 0.01 -0.09 0.01 -0.1 0 0 0.32zm2.13 -2.12l-0.01 -0.11 0 -0.11 -0.02 -0.1 -0.02 -0.11 -0.02 -0.1 -0.03 -0.1 -0.03 -0.1 -0.04 -0.09 -0.04 -0.1 -0.05 -0.09 -0.05 -0.09 -0.06 -0.08 -0.06 -0.08 -0.06 -0.08 -0.07 -0.08 -0.07 -0.07 -0.07 -0.07 -0.08 -0.07 -0.08 -0.06 -0.08 -0.06 -0.09 -0.05 -0.09 -0.05 -0.09 -0.05 -0.09 -0.04 -0.1 -0.03 -0.1 -0.04 -0.1 -0.03 -0.1 -0.02 -0.1 -0.02 -0.11 -0.01 -0.11 -0.01 -0.11 0 0 0.32 0.1 0 0.09 0.01 0.09 0.01 0.09 0.01 0.09 0.02 0.08 0.03 0.08 0.02 0.09 0.04 0.08 0.03 0.07 0.04 0.08 0.04 0.07 0.05 0.07 0.05 0.07 0.05 0.07 0.06 0.06 0.05 0.06 0.07 0.06 0.06 0.05 0.07 0.05 0.07 0.05 0.07 0.04 0.07 0.04 0.08 0.04 0.08 0.03 0.08 0.03 0.08 0.02 0.09 0.02 0.08 0.02 0.09 0.01 0.09 0.01 0.09 0 0.1 0.32 0zm-2.13 -2.1l0 0.32 -0.09 0 -0.09 0.01 -0.09 0.01 -0.09 0.01 -0.09 0.02 -0.08 0.03 -0.08 0.02 -0.09 0.04 -0.08 0.03 -0.07 0.04 -0.08 0.04 -0.07 0.05 -0.07 0.05 -0.07 0.05 -0.07 0.06 -0.06 0.05 -0.06 0.07 -0.06 0.06 -0.05 0.07 -0.05 0.07 -0.05 0.07 -0.04 0.07 -0.04 0.08 -0.04 0.08 -0.03 0.08 -0.03 0.08 -0.02 0.09 -0.02 0.08 -0.02 0.09 -0.01 0.09 -0.01 0.09 0 0.1 -0.32 0 0.01 -0.11 0 -0.11 0.02 -0.1 0.02 -0.11 0.02 -0.1 0.03 -0.1 0.03 -0.1 0.04 -0.09 0.04 -0.1 0.05 -0.09 0.05 -0.09 0.06 -0.08 0.06 -0.08 0.06 -0.08 0.07 -0.08 0.07 -0.07 0.07 -0.07 0.08 -0.07 0.08 -0.06 0.08 -0.06 0.09 -0.05 0.09 -0.05 0.09 -0.05 0.09 -0.04 0.1 -0.03 0.1 -0.04 0.1 -0.03 0.1 -0.02 0.1 -0.02 0.11 -0.01 0.11 -0.01 0.1 0z"/>
   <path class="fil0" d="M73.84 41.73l0.12 0c0.24,0 0.24,0.15 0.37,0.39l0.14 0.27c0.08,0.17 0.22,0.42 0.62,0.42l0.32 0 0 -0.1c-0.08,0 -0.17,-0.02 -0.25,-0.1 -0.27,-0.34 -0.54,-0.88 -0.59,-1 0.22,-0.1 0.47,-0.32 0.47,-0.64 0,-0.59 -0.54,-0.64 -0.89,-0.64l-1.07 0 0 0.1 0.09 0.02c0.18,0.03 0.18,0.05 0.18,0.45l0 1.34c0,0.4 0,0.42 -0.18,0.45l-0.09 0.02 0 0.1 1.03 0 0 -0.1 -0.1 -0.02c-0.17,-0.03 -0.17,-0.05 -0.17,-0.45l0 -0.51zm0 -1.23c0.07,-0.02 0.12,-0.02 0.19,-0.02 0.3,0 0.54,0.19 0.54,0.54 0,0.14 -0.02,0.56 -0.54,0.56l-0.19 0 0 -1.08z"/>
   <path class="fil0" d="M68 58.62c0.19,-0.34 0.35,-0.16 0.75,-0.28 0.3,-0.1 0.46,-0.22 0.57,-0.44 0.56,-0.62 0.22,-4.99 0.16,-6.03l-0.45 -6.22c-0.14,-0.65 -0.33,-0.56 -1.11,-0.5l-0.03 -0.11c0.06,-0.19 0,-0.09 0.14,-0.27l4.26 -0.01c0.24,0 0.45,-0.06 0.54,0.1 -0.22,0.24 -0.65,0.27 -1.11,0.24 -0.57,0.22 -0.46,0.52 -0.51,1.19 -0.33,4.56 -0.3,5.7 -0.22,10.16 0,0.8 -0.11,1.07 0.3,1.48 0.13,0.31 0.05,0.26 0.3,0.43 0.24,0.06 0.29,0.06 0.56,0.06l0.3 0c0.27,0.06 0.19,-0.11 0.21,0.18 -0.62,0.26 -1.43,-0.04 -2.21,-0.04 -0.91,0 -1.51,0.07 -2.37,0.21 -0.11,-0.09 -0.13,0.15 -0.08,-0.15z"/>
   <path class="fil0" d="M39.56 46.11l0.05 -0.76c-0.13,-0.53 -0.78,-0.4 -1.24,-0.34l0.16 -0.41 3.67 0.03c0.16,0.35 0.08,0.2 0.16,0.73 0.14,0.81 1.46,3.94 1.78,4.67 0.35,0.87 0.7,1.7 1.08,2.6 0.16,0.42 0.35,0.91 0.51,1.32 0.14,0.37 0.33,1.06 0.57,1.24 0.35,-0.11 1.08,-1.96 1.32,-2.44 0.4,-0.87 0.78,-1.73 1.19,-2.57 0.37,-0.86 0.8,-1.68 1.15,-2.59 1.35,-3.52 -0.1,-2.91 2.75,-2.91 0.17,0 1.73,-0.06 1.73,0.11 0.03,0.22 -0.16,0.16 -0.3,0.19 -0.46,0.09 -1,-0.18 -1,0.97 -0.02,0.96 1.57,9.3 1.89,10.91 0.06,0.25 0.11,0.51 0.17,0.77 0.08,0.33 0.13,0.47 0.32,0.59 0.27,0.17 0.54,0.11 0.97,0.11l0.03 0.18c-0.11,0 -0.09,-0.03 -0.06,0.09 -0.16,-0.03 -0.16,-0.07 -0.11,0.06 -0.24,-0.04 -0.4,0 -0.7,-0.04 -0.21,-0.03 -0.4,-0.11 -0.59,-0.14 -1.3,-0.15 -3.1,0.12 -4.29,0.23 0.25,-0.61 0.35,-0.26 0.95,-0.5 0.35,-0.16 0.54,-0.35 0.7,-0.69 0.48,-0.89 0.11,-3.74 0,-4.89 -0.08,-0.81 -0.16,-1.61 -0.3,-2.4 -0.13,-0.76 -0.16,-1.56 -0.27,-2.32 0.03,-0.45 -0.56,-1.49 -1.29,0.68 -0.76,1.63 -1.89,3.82 -2.51,5.43 -0.03,0.11 -0.05,0.15 -0.11,0.27l-1.29 3.37c-0.14,0.46 -0.14,0.83 -0.68,0.83 -0.43,-0.01 -0.45,-0.24 -0.62,-0.89l-4.12 -10.31c-0.27,-0.38 -0.7,-0.34 -0.84,0.09 -0.37,1.27 -1.56,8.39 -1.32,9.54 0.19,0.79 0.81,1.04 1.92,1.36 0.11,0.11 0.19,-0.18 0.08,0.2 -0.86,0.23 -1.59,-0.08 -2.46,-0.08 -1.16,0 -1.4,0.05 -2.45,0.26 0.14,-0.44 0.19,-0.27 0.6,-0.48 0.21,-0.11 0.37,-0.31 0.51,-0.47 0.29,-0.38 0.43,-0.94 0.56,-1.44 0.27,-1.02 0.46,-2.26 0.65,-3.34 0.16,-1.12 0.4,-2.28 0.57,-3.38 0.16,-1.05 0.29,-2.48 0.51,-3.44z"/>
   <path class="fil0" d="M14.3 58.49c0.11,-0.33 0.13,-0.3 0.51,-0.36 0.3,-0.04 0.46,-0.12 0.67,-0.23 0.38,-0.59 0.36,-0.42 0.38,-1.21 0,-0.56 0.03,-1.12 0.03,-1.68 0,-1.11 -0.03,-2.2 -0.05,-3.29 -0.06,-1.07 -0.11,-2.13 -0.22,-3.14 -0.11,-1 -0.11,-2.26 -0.27,-3.19 -0.03,-0.62 -0.54,-0.6 -1.27,-0.47l0 0.02c0.08,-0.37 0.06,-0.33 0.3,-0.38l4.66 0.05c-0.05,0.33 -0.86,0.04 -1.27,0.34 -0.4,0.3 -0.45,4.34 -0.4,4.84l0.3 0.39 0.35 0.07 8.09 0c0.4,-0.29 0.29,-0.37 0.27,-0.97 -0.03,-0.46 -0.06,-0.87 -0.06,-1.31 -0.05,-0.68 -0.08,-1.97 -0.19,-2.59 -0.11,-0.47 -0.46,-0.55 -1.24,-0.4l0.03 -0.09c0.16,-0.36 -0.03,-0.16 0.24,-0.28 0.7,-0.08 1.65,0 2.37,0l2.24 0.06c0,0 0.03,0.01 0.06,0.01 -0.11,0.17 0,0.11 -0.22,0.17l-1 0.12c-0.62,0.28 -0.45,2.39 -0.54,3.08 -0.1,2.11 -0.18,5.91 -0.02,8.02 0.05,0.71 -0.06,1.24 0.24,1.51 0.03,0.35 0.13,0.4 0.32,0.57l1 0.1 -0.03 0.2c-0.78,0.15 -1.48,-0.09 -2.37,-0.11 -0.94,0 -1.37,0.12 -2.24,0.26l0.06 -0.11c0.16,-0.31 0.13,-0.22 0.54,-0.33 0.27,-0.07 0.4,-0.18 0.64,-0.29 0.19,-0.45 0.33,-0.25 0.41,-1.1 0.11,-1.35 -0.08,-4.43 -0.06,-4.8 0.11,-0.77 0,-1.07 -0.83,-1.04 -0.19,-0.17 -1.57,-0.08 -1.94,-0.08l-4.15 -0.04c-0.35,0 -1.81,-0.11 -1.87,0.1 -0.64,0.05 -0.48,0.84 -0.48,1.49l0 3.82c0.05,0.88 0,1.12 0.35,1.61 0.24,0.48 0.57,0.32 1.27,0.35l0.05 0.13 -0.03 0.09c-0.97,0.11 -1.45,-0.1 -2.42,-0.1 -0.46,0 -2.08,0.26 -2.21,0.21l0 -0.02z"/>
   <path class="fil0" d="M-0.26 58.3c0.27,-0.41 0.78,-0.08 1.27,-0.61 0.51,-0.56 0.27,-4.4 0.27,-5.22 -0.03,-1.16 -0.11,-2.33 -0.19,-3.48 -0.06,-0.91 -0.24,-2.55 -0.24,-3.42 -0.19,-0.71 -0.3,-0.68 -1.11,-0.75 0.22,-0.47 0.35,-0.38 0.94,-0.37 0.44,0 0.87,-0.01 1.3,0 0.83,0 1.72,0.02 2.56,0l-0.05 0.25 -1.03 0.09 -0.19 0.12c-0.16,-0.05 -0.16,-0.09 -0.11,0.06 -0.16,0.1 -0.13,0.26 -0.16,0.54 0,0.25 0,0.43 -0.02,0.66 -0.06,0.42 -0.09,0.8 -0.11,1.25 0,0.08 -0.49,3.99 0.62,2.85l4.5 -4.48 0.08 -0.08 0.05 -0.07 0.06 -0.08 0.24 -0.47c0.03,-0.23 -0.05,-0.26 -0.32,-0.29 -0.19,-0.01 -0.32,0.03 -0.46,0.09l-0.08 -0.12c0.19,-0.41 0.46,-0.3 1,-0.29 1.02,0.02 2.77,-0.06 3.64,0.02l-0.06 0.21c-1.67,0.33 -1.18,-0.1 -2.4,0.86l-3.53 2.98c-0.35,0.32 -1.64,1.32 -1.35,1.82 0.11,0.22 0,0.07 0.24,0.2 0.14,0.05 0.14,0 0.27,0.11 0.76,0.25 2.22,1.72 2.7,2.28l2.27 2.64c0.32,0.35 0.59,0.67 0.86,1.03 1.35,1.67 1.16,1.38 2.42,1.55l-0.05 0.13c-0.13,0 -0.13,-0.04 -0.08,0.09 -0.65,0.05 -0.92,-0.07 -1.38,-0.06 -0.26,-0.25 -0.97,-0.04 -1.34,-0.21 -0.22,-0.11 -1.92,-2.05 -2.16,-2.33 -1.02,-1.13 -4.07,-5.37 -5.66,-4.7 -0.38,0.15 -0.35,0.58 -0.35,1.07 0.05,1.25 -0.06,3.4 0.02,4.49 0.06,0.58 -0.02,0.79 0.38,1.03l0.06 0.29 0.27 0.06c0.24,0.21 1.02,0.12 1.4,0.11l0.02 0.15c-1.02,0.32 -1.5,-0.05 -2.39,-0.08 -0.97,-0.01 -1.59,0.08 -2.54,0.24 -0.11,-0.09 -0.11,0.16 -0.08,-0.16z"/>
   <path class="fil0" d="M57.05 57.45c0.11,-0.36 0.41,-0.44 0.7,-0.23 0.76,0.56 1.62,0.87 2.67,0.87 1.33,-0.02 2.65,-0.88 2.94,-1.79 0.49,-1.02 0.43,-4.08 0.35,-5.43 -0.05,-0.91 -0.11,-1.79 -0.19,-2.7 -0.05,-0.69 -0.24,-2.03 -0.16,-2.64l0.03 -0.37c-0.54,-0.13 -1.03,-0.15 -1.59,-0.01l0.05 -0.26c0.27,-0.3 2.13,-0.17 2.65,-0.17l2.07 0.02c0.3,0 0.54,-0.08 0.54,0.18 -0.3,0.14 -0.81,0.18 -1.19,0.18 -0.4,0.17 -0.37,0.23 -0.4,0.67 -0.27,2.88 -0.27,3.96 -0.27,7.01 0,2.33 0.35,4.06 -1.99,5.28l-0.57 0.28c0,0.02 -0.03,0.02 -0.05,0.05 0,0.03 -0.03,0.03 -0.06,0.04 -3.21,1.11 -4.61,-0.75 -5.53,-0.75l0 -0.23z"/>
   <path class="fil0" d="M31.85 46.12c-0.06,-0.58 0.13,-1.32 -1.27,-1.12 0.08,-0.3 0.08,-0.26 0.3,-0.4 0.43,-0.09 1.86,-0.01 2.4,-0.01l1.21 0c0.32,0 1,-0.14 1.11,0.2 -0.33,0.12 -0.79,0.15 -1.19,0.18 -0.38,0.1 -0.35,0.1 -0.38,0.54 -0.03,0.28 -0.05,0.49 -0.08,0.78 -0.27,2.11 -0.16,2.74 -0.27,4.82 -0.08,1.84 0.03,3.4 0.06,5.11 0,0.59 -0.09,1.12 0.29,1.4 0.08,0.39 0.08,0.47 0.43,0.59l1 0.07c-0.05,0.18 0.14,-0.03 -0.05,0.18 -0.57,0.14 -0.73,0.11 -1.24,0 -1.3,-0.3 -2.97,0.14 -3.21,0.13 -0.22,-0.02 -0.08,0.03 -0.22,-0.06 0.22,-0.51 0.76,-0.16 1.24,-0.64 0.35,-0.35 0.38,-0.65 0.38,-1.44 0,-2.43 -0.16,-8.07 -0.51,-10.33z"/>
   <path class="fil1" d="M0.99 65.28c0.01,-0.08 0.03,-0.16 0.05,-0.24 0.02,-0.07 0.05,-0.15 0.07,-0.22 -0.02,-0.13 -0.04,-0.26 -0.05,-0.37 -0.01,-0.11 -0.02,-0.21 -0.02,-0.31 0,-0.02 0,-0.04 0.01,-0.07 0,-0.04 0,-0.06 0,-0.08l0.2 0c0.02,0.37 0.13,0.66 0.32,0.88 0.2,0.21 0.46,0.31 0.79,0.31 0.25,0 0.46,-0.06 0.61,-0.2 0.15,-0.13 0.23,-0.31 0.23,-0.53 0,-0.2 -0.06,-0.37 -0.19,-0.5 -0.12,-0.13 -0.37,-0.27 -0.76,-0.43 -0.45,-0.2 -0.76,-0.39 -0.93,-0.57 -0.17,-0.19 -0.25,-0.42 -0.25,-0.69 0,-0.36 0.13,-0.65 0.39,-0.87 0.26,-0.22 0.61,-0.33 1.04,-0.33 0.15,0 0.32,0.02 0.51,0.05 0.19,0.04 0.31,0.06 0.34,0.06 0.04,0 0.07,-0.01 0.1,-0.03 0.02,-0.01 0.04,-0.03 0.05,-0.06l0.18 0.01c-0.01,0.07 -0.03,0.13 -0.05,0.2 -0.02,0.06 -0.04,0.12 -0.07,0.18 0.02,0.09 0.03,0.19 0.04,0.28 0,0.09 0.01,0.17 0.01,0.25 0,0.02 0,0.05 -0.01,0.09 0,0.04 0,0.07 0,0.09l-0.19 0c-0.02,-0.29 -0.11,-0.51 -0.27,-0.67 -0.16,-0.16 -0.37,-0.24 -0.63,-0.24 -0.24,0 -0.42,0.06 -0.56,0.18 -0.15,0.13 -0.22,0.29 -0.22,0.49 0,0.33 0.35,0.64 1.05,0.94 0.01,0.01 0.02,0.01 0.03,0.01 0.41,0.18 0.7,0.36 0.86,0.55 0.17,0.19 0.25,0.42 0.25,0.7 0,0.36 -0.14,0.67 -0.43,0.9 -0.29,0.23 -0.67,0.35 -1.14,0.35 -0.21,0 -0.43,-0.04 -0.66,-0.11 -0.23,-0.07 -0.35,-0.1 -0.38,-0.1 -0.04,0 -0.07,0.01 -0.1,0.02 -0.02,0.02 -0.04,0.05 -0.06,0.09l-0.16 -0.01z"/>
   <path class="fil1" d="M10.16 63.83l0 -0.1c0,-0.37 -0.02,-0.6 -0.08,-0.69 -0.05,-0.08 -0.15,-0.12 -0.3,-0.12l-0.06 0 0 -0.14c0.15,-0.02 0.29,-0.04 0.43,-0.05 0.14,-0.02 0.28,-0.03 0.41,-0.03 0.05,-0.05 0.1,-0.09 0.14,-0.13 0.05,-0.03 0.08,-0.06 0.11,-0.08l0.1 0.06c-0.02,0.13 -0.03,0.28 -0.03,0.43 -0.01,0.15 -0.01,0.34 -0.01,0.57l0 0.73c0,0.4 0.02,0.65 0.08,0.75 0.07,0.09 0.18,0.15 0.35,0.16l0 0.14c-0.09,-0.01 -0.19,-0.01 -0.31,-0.03 -0.12,-0.02 -0.28,-0.04 -0.48,-0.08 -0.17,0.03 -0.32,0.06 -0.45,0.07 -0.12,0.02 -0.24,0.03 -0.34,0.04l0 -0.14c0.18,-0.01 0.29,-0.07 0.35,-0.16 0.06,-0.1 0.09,-0.35 0.09,-0.75l0 -0.1 0 -0.35zm-0.13 -2.21c0,-0.12 0.04,-0.21 0.12,-0.29 0.08,-0.08 0.18,-0.12 0.3,-0.12 0.12,0 0.22,0.04 0.3,0.12 0.08,0.07 0.12,0.17 0.12,0.29 0,0.12 -0.05,0.22 -0.13,0.3 -0.08,0.08 -0.18,0.12 -0.29,0.12 -0.12,0 -0.22,-0.04 -0.3,-0.12 -0.08,-0.08 -0.12,-0.18 -0.12,-0.3z"/>
   <path class="fil1" d="M17.23 64.18l0 -0.45c0,-0.37 -0.03,-0.6 -0.08,-0.69 -0.05,-0.08 -0.15,-0.12 -0.3,-0.12l-0.06 0 0 -0.14c0.16,-0.02 0.3,-0.05 0.42,-0.06 0.13,-0.02 0.24,-0.02 0.35,-0.02 0.04,-0.04 0.08,-0.08 0.12,-0.11 0.04,-0.03 0.08,-0.06 0.12,-0.08l0.1 0.05c-0.01,0.09 -0.02,0.18 -0.03,0.27 -0.01,0.09 -0.01,0.19 -0.01,0.29l0.04 0.01c0.09,-0.2 0.22,-0.35 0.39,-0.45 0.16,-0.1 0.36,-0.15 0.6,-0.15 0.34,0 0.59,0.1 0.74,0.3 0.15,0.21 0.23,0.55 0.23,1.02l0 0.43c0,0.4 0.03,0.65 0.09,0.75 0.05,0.09 0.17,0.15 0.35,0.16l-0.01 0.14c-0.11,-0.01 -0.22,-0.02 -0.34,-0.03 -0.12,-0.02 -0.25,-0.05 -0.39,-0.08 -0.07,0.03 -0.13,0.05 -0.2,0.06 -0.08,0.02 -0.16,0.03 -0.25,0.05 0.01,-0.12 0.02,-0.28 0.02,-0.45 0.01,-0.18 0.01,-0.42 0.01,-0.73 0,-0.53 -0.04,-0.88 -0.12,-1.05 -0.09,-0.17 -0.23,-0.25 -0.44,-0.25 -0.22,0 -0.38,0.08 -0.49,0.24 -0.1,0.17 -0.16,0.42 -0.16,0.74l0 0.45c0,0.4 0.03,0.65 0.09,0.75 0.06,0.09 0.18,0.15 0.35,0.16l0 0.14c-0.1,-0.01 -0.21,-0.02 -0.34,-0.03 -0.12,-0.02 -0.27,-0.04 -0.45,-0.08 -0.17,0.03 -0.32,0.06 -0.44,0.07 -0.13,0.02 -0.25,0.03 -0.36,0.04l0 -0.14c0.18,-0.01 0.3,-0.07 0.36,-0.17 0.06,-0.09 0.09,-0.36 0.09,-0.79l0 -0.05z"/>
   <path class="fil1" d="M27.8 63.39c-0.05,-0.2 -0.13,-0.37 -0.24,-0.48 -0.11,-0.12 -0.25,-0.17 -0.41,-0.17 -0.21,0 -0.37,0.08 -0.49,0.25 -0.13,0.17 -0.19,0.39 -0.19,0.67 0,0.4 0.1,0.73 0.31,0.99 0.21,0.26 0.47,0.39 0.79,0.39 0.13,0 0.25,-0.01 0.36,-0.05 0.11,-0.04 0.22,-0.1 0.33,-0.18l0.08 0.14c-0.14,0.14 -0.3,0.25 -0.51,0.32 -0.21,0.08 -0.43,0.12 -0.68,0.12 -0.43,0 -0.76,-0.12 -1.01,-0.37 -0.25,-0.24 -0.37,-0.58 -0.37,-0.99 0,-0.44 0.15,-0.8 0.45,-1.08 0.29,-0.28 0.68,-0.42 1.14,-0.42 0.26,0 0.48,0.05 0.64,0.15 0.17,0.1 0.25,0.23 0.25,0.38 0,0.1 -0.04,0.18 -0.12,0.23 -0.08,0.06 -0.19,0.1 -0.33,0.1z"/>
   <path class="fil1" d="M34.64 63.46l0.99 0c0.06,0 0.11,-0.01 0.13,-0.02 0.02,-0.02 0.03,-0.05 0.03,-0.1 0,-0.17 -0.06,-0.32 -0.17,-0.45 -0.12,-0.12 -0.25,-0.19 -0.41,-0.19 -0.17,0 -0.3,0.07 -0.41,0.2 -0.11,0.13 -0.16,0.29 -0.16,0.49l0 0.07zm1.82 0.19l-1.62 0c-0.08,0 -0.13,0.02 -0.16,0.05 -0.03,0.03 -0.04,0.1 -0.04,0.18 0,0.33 0.1,0.61 0.3,0.83 0.2,0.22 0.45,0.33 0.76,0.33 0.14,0 0.29,-0.02 0.42,-0.07 0.13,-0.06 0.25,-0.13 0.35,-0.23l0.08 0.14c-0.13,0.16 -0.31,0.28 -0.53,0.37 -0.22,0.09 -0.46,0.14 -0.73,0.14 -0.42,0 -0.76,-0.12 -1.01,-0.37 -0.25,-0.25 -0.38,-0.58 -0.38,-1 0,-0.43 0.14,-0.78 0.41,-1.08 0.27,-0.29 0.6,-0.43 0.99,-0.43 0.34,0 0.62,0.09 0.84,0.28 0.22,0.2 0.34,0.43 0.34,0.7 0,0.04 0,0.07 -0.01,0.09 0,0.03 0,0.05 -0.01,0.07z"/>
   <path class="fil1" d="M46.28 61.13l0.08 0.06c-0.03,0.12 -0.05,0.3 -0.06,0.53 -0.01,0.23 -0.02,0.52 -0.02,0.86l0 1.41c0,0.55 0.04,0.88 0.13,1.01 0.09,0.12 0.26,0.18 0.51,0.18l0 0.15c-0.15,-0.01 -0.31,-0.02 -0.48,-0.04 -0.16,-0.02 -0.33,-0.05 -0.51,-0.08 -0.2,0.03 -0.38,0.06 -0.54,0.08 -0.16,0.02 -0.31,0.03 -0.45,0.04l0 -0.15c0.25,0 0.42,-0.06 0.51,-0.18 0.08,-0.12 0.13,-0.46 0.13,-1.01l0 -0.14 0 -1.36c0,-0.47 -0.03,-0.77 -0.1,-0.89 -0.06,-0.12 -0.18,-0.18 -0.36,-0.18 -0.01,0 -0.03,0 -0.05,0.01 -0.02,0 -0.04,0 -0.05,0l0 -0.14c0.01,0 0.02,0 0.04,0 0.17,-0.02 0.3,-0.02 0.38,-0.02 0.05,0 0.11,0 0.19,0 0.08,0 0.18,0.01 0.3,0.01 0.06,-0.03 0.11,-0.06 0.17,-0.08 0.06,-0.03 0.12,-0.05 0.18,-0.07zm6.64 4.37l-0.07 -0.18c0.5,-0.16 0.9,-0.41 1.2,-0.75 0.29,-0.35 0.48,-0.77 0.56,-1.28 -0.13,0.14 -0.27,0.25 -0.42,0.32 -0.15,0.07 -0.33,0.1 -0.52,0.1 -0.34,0 -0.63,-0.11 -0.85,-0.34 -0.22,-0.22 -0.33,-0.51 -0.33,-0.86 0,-0.39 0.14,-0.73 0.43,-0.99 0.28,-0.27 0.63,-0.4 1.05,-0.4 0.44,0 0.79,0.15 1.06,0.46 0.26,0.31 0.4,0.72 0.4,1.24 0,0.64 -0.23,1.21 -0.68,1.69 -0.45,0.49 -1.06,0.82 -1.83,0.99zm1.04 -2c0.21,0 0.38,-0.11 0.51,-0.32 0.13,-0.21 0.2,-0.48 0.2,-0.81 0,-0.33 -0.06,-0.59 -0.19,-0.78 -0.13,-0.2 -0.3,-0.3 -0.51,-0.3 -0.21,0 -0.38,0.1 -0.51,0.3 -0.12,0.19 -0.19,0.45 -0.19,0.78 0,0.35 0.07,0.62 0.19,0.82 0.13,0.21 0.29,0.31 0.5,0.31zm8.06 -0.38c0.39,0.02 0.71,0.13 0.93,0.31 0.22,0.18 0.34,0.42 0.34,0.72 0,0.36 -0.16,0.65 -0.45,0.89 -0.3,0.24 -0.68,0.36 -1.14,0.36 -0.3,0 -0.56,-0.06 -0.79,-0.18 -0.22,-0.11 -0.4,-0.28 -0.54,-0.51l0.18 -0.16c0.13,0.17 0.28,0.3 0.44,0.39 0.17,0.08 0.35,0.13 0.56,0.13 0.27,0 0.5,-0.09 0.67,-0.26 0.18,-0.17 0.26,-0.39 0.26,-0.67 0,-0.28 -0.08,-0.49 -0.26,-0.65 -0.18,-0.15 -0.43,-0.22 -0.76,-0.22 -0.03,0 -0.06,0 -0.1,0 -0.03,0 -0.07,0 -0.11,0l0 -0.22c0.37,0 0.65,-0.08 0.85,-0.24 0.19,-0.16 0.29,-0.4 0.29,-0.71 0,-0.25 -0.05,-0.44 -0.16,-0.59 -0.11,-0.14 -0.26,-0.22 -0.44,-0.22 -0.16,0 -0.28,0.06 -0.38,0.16 -0.09,0.1 -0.14,0.23 -0.14,0.39 0,0.06 0.01,0.11 0.02,0.17 0.01,0.06 0.03,0.11 0.05,0.17 -0.05,0.03 -0.11,0.06 -0.17,0.08 -0.06,0.02 -0.12,0.03 -0.18,0.03 -0.11,0 -0.19,-0.04 -0.26,-0.11 -0.06,-0.06 -0.09,-0.15 -0.09,-0.26 0,-0.23 0.11,-0.42 0.34,-0.57 0.23,-0.15 0.52,-0.23 0.88,-0.23 0.38,0 0.69,0.09 0.92,0.27 0.23,0.18 0.35,0.42 0.35,0.71 0,0.25 -0.1,0.47 -0.29,0.65 -0.2,0.18 -0.47,0.3 -0.82,0.37zm8.02 -0.11c-0.21,0 -0.38,0.1 -0.51,0.31 -0.14,0.21 -0.2,0.49 -0.2,0.82 0,0.33 0.06,0.59 0.19,0.78 0.13,0.2 0.3,0.29 0.51,0.29 0.21,0 0.38,-0.1 0.5,-0.29 0.13,-0.2 0.19,-0.47 0.19,-0.8 0,-0.35 -0.06,-0.61 -0.19,-0.81 -0.12,-0.2 -0.29,-0.3 -0.49,-0.3zm0.98 -2l0.07 0.2c-0.48,0.15 -0.86,0.4 -1.16,0.74 -0.29,0.35 -0.47,0.77 -0.54,1.26 0.12,-0.14 0.26,-0.24 0.41,-0.31 0.16,-0.07 0.33,-0.11 0.53,-0.11 0.34,0 0.63,0.12 0.84,0.34 0.22,0.23 0.33,0.53 0.33,0.89 0,0.38 -0.14,0.71 -0.43,0.97 -0.29,0.27 -0.64,0.4 -1.05,0.4 -0.43,0 -0.78,-0.15 -1.05,-0.46 -0.27,-0.3 -0.4,-0.7 -0.4,-1.2 0,-0.65 0.21,-1.22 0.65,-1.7 0.43,-0.48 1.03,-0.82 1.8,-1.02z"/>
  </g>
 </g>
</svg>
