<?xml version="1.0" encoding="UTF-8"?>
<!DOCTYPE svg PUBLIC "-//W3C//DTD SVG 1.1//EN" "http://www.w3.org/Graphics/SVG/1.1/DTD/svg11.dtd">
<!-- Creator: CorelDRAW 2019 (64-Bit) -->
<svg xmlns="http://www.w3.org/2000/svg" xml:space="preserve" width="266px" height="50px" version="1.1" style="shape-rendering:geometricPrecision; text-rendering:geometricPrecision; image-rendering:optimizeQuality; fill-rule:evenodd; clip-rule:evenodd"
viewBox="0 0 266 50"
 xmlns:xlink="http://www.w3.org/1999/xlink"
 xmlns:xodm="http://www.corel.com/coreldraw/odm/2003">
 <defs>
  <style type="text/css">
   <![CDATA[
    .fil0 {fill:none}
    .fil1 {fill:#00959A}
    .fil3 {fill:#35BEBC;fill-rule:nonzero}
    .fil2 {fill:#00959A;fill-rule:nonzero}
   ]]>
  </style>
 </defs>
 <g id="Layer_x0020_1">
  <metadata id="CorelCorpID_0Corel-Layer"/>
  <polygon class="fil0" points="0,0 266,0 266,50 0,50 "/>
  <g id="_2864517144352">
   <g>
    <path class="fil1" d="M24.92 25l12.23 0c6.87,0 12.5,5.62 12.5,12.5l0 0c0,6.87 -5.63,12.5 -12.5,12.5l-27.89 0c-4.93,0 -8.97,-4.04 -8.97,-8.98l0 -15.11 19.21 19.21c3.51,3.51 9.26,3.51 12.77,0l0 0c3.51,-3.51 3.51,-9.26 0,-12.77l-7.35 -7.35z"/>
    <path class="fil1" d="M25.02 25l-12.23 0c-6.88,0 -12.5,-5.63 -12.5,-12.5l0 0c0,-6.88 5.62,-12.5 12.5,-12.5l27.89 0c4.93,0 8.97,4.04 8.97,8.97l0 15.12 -19.21 -19.21c-3.51,-3.51 -9.26,-3.51 -12.77,0l0 0c-3.51,3.51 -3.51,9.26 0,12.77l7.35 7.35z"/>
   </g>
   <path class="fil2" d="M90.9 22.06c0,-3.18 -2.6,-5.86 -5.78,-5.86l-14.01 0c-2.06,0 -3.3,-0.73 -3.3,-2.25 0,-1.51 1.17,-2.25 3.22,-2.25l11.22 0c1.74,0 3.76,0.66 4.58,1.79 0.35,0.5 1.01,1.12 1.9,1.12 1.2,0 2.17,-0.97 2.17,-2.17 0,-0.62 -0.27,-1.09 -0.58,-1.47 -1.36,-1.75 -3.61,-2.76 -6.01,-2.76l-15.06 0c-3.18,0 -5.75,2.56 -5.75,5.74 0,3.19 2.61,5.75 5.79,5.75l13.97 0c2.01,0 3.3,0.81 3.3,2.36 0,1.56 -1.17,2.37 -3.19,2.37l-11.25 0c-1.75,0 -3.76,-0.66 -4.58,-1.78 -0.35,-0.51 -0.97,-1.09 -1.86,-1.09 -1.2,0 -2.18,0.97 -2.18,2.17 0,0.62 0.28,1.09 0.59,1.48 1.36,1.74 3.57,2.71 5.97,2.71l15.06 0c3.22,0 5.78,-2.67 5.78,-5.86zm35.16 0.08l0 -11.76c0,-1.2 -0.93,-2.17 -2.13,-2.17 -1.21,0 -2.18,0.97 -2.18,2.17l0 10.87c0,1.75 -1.51,3.22 -3.3,3.22l-12.14 0c-1.79,0 -3.3,-1.47 -3.3,-3.22l0 -10.87c0,-1.2 -0.97,-2.17 -2.17,-2.17 -1.21,0 -2.18,0.97 -2.18,2.17l0 11.76c0,3.18 2.6,5.78 5.79,5.78l15.83 0c3.18,0 5.78,-2.6 5.78,-5.78zm31.04 3.65l0 -15.41c0,-1.2 -0.93,-2.17 -2.13,-2.17 -1.16,0 -2.17,0.93 -2.17,2.13l0 12.46c0,0.47 -0.39,0.82 -0.74,0.82l-10.01 -0.04c-2.29,0 -3.92,-1.09 -3.92,-2.91 0,-1.21 -0.97,-2.18 -2.17,-2.18 -1.21,0 -2.1,0.97 -2.14,2.14 -0.11,4.03 3.3,7.29 7.26,7.29l13.85 0c1.17,0 2.17,-0.89 2.17,-2.13zm37.1 -0.04c0,-0.66 -0.38,-1.2 -0.81,-1.71l-12.61 -14.98c-0.35,-0.38 -0.9,-0.85 -1.67,-0.85 -0.74,0 -1.36,0.31 -1.79,0.81l-12.65 15.02c-0.42,0.51 -0.77,1.01 -0.77,1.71 0,1.2 0.97,2.17 2.17,2.17 0.89,0 1.47,-0.58 1.98,-1.2l1.55 -1.94c0.47,-0.58 1.16,-1.16 1.98,-1.16l14.86 0c0.66,0 1.48,0.58 1.9,1.08l1.87 2.18c0.46,0.54 1.04,1.04 1.82,1.04 1.2,0 2.17,-0.97 2.17,-2.17zm-10.79 -6.6c0,0.39 -0.35,0.74 -0.73,0.74l-7.3 0c-0.39,0 -0.74,-0.35 -0.74,-0.74 0,-0.19 0.08,-0.35 0.16,-0.46l3.72 -4.27c0.16,-0.16 0.32,-0.27 0.55,-0.27 0.23,0 0.43,0.08 0.54,0.23l3.65 4.31c0.08,0.11 0.15,0.27 0.15,0.46zm43.08 5.42l-14.71 -6.04c-0.27,-0.15 -0.35,-0.35 -0.35,-0.46 0,-0.16 0.08,-0.35 0.27,-0.47l12.73 -6.09c2.41,-1.17 0.12,-4.11 -2.17,-3.11l-12.5 5.51c-0.58,0.28 -4.5,2.53 -4.5,0.74l0.04 -4.27c0,-1.2 -0.97,-2.17 -2.17,-2.17 -1.21,0 -2.14,0.97 -2.14,2.17l0 15.38c0,1.24 0.97,2.12 2.14,2.12 1.2,0 2.17,-0.96 2.17,-2.16l0.04 -4.17c0,-1.66 3.92,0.27 4.54,0.51l14.59 5.71c2.33,0.93 4.46,-2.2 2.02,-3.2zm39.15 1.22l0 -15.45c0,-1.24 -1.01,-2.09 -2.17,-2.09 -1.2,0 -2.17,0.93 -2.17,2.13l0 5.13c0,0.38 -0.31,0.69 -0.7,0.69l-20.22 0c-0.39,0 -0.7,-0.31 -0.7,-0.69l0 -5.13c0,-1.2 -0.97,-2.13 -2.17,-2.13 -1.2,0 -2.17,0.93 -2.17,2.13l0 15.41c0,1.24 1.01,2.13 2.17,2.13 1.2,0 2.17,-0.97 2.17,-2.17l-0.04 -5.04c0,-0.39 0.35,-0.7 0.74,-0.7l20.18 -0.04c0.39,0 0.7,0.35 0.7,0.74l0.04 5.08c0,1.2 0.97,2.13 2.17,2.13 1.2,0 2.17,-0.93 2.17,-2.13z"/>
   <path class="fil3" d="M67.11 39.33l3.59 0 -1.77 -3.33 -1.82 3.33zm-3.67 3.27l4.64 -8.19 1.84 0 4.7 8.19 -2.14 0 -0.99 -1.79 -5.2 0 -0.95 1.79 -1.9 0zm29.61 -6.73l-5.15 0 0 5.19 5.15 0 0 -1.76 1.9 0.4 0 0.97c0,0.75 -0.14,1.26 -0.42,1.53 -0.28,0.27 -0.82,0.4 -1.61,0.4l-4.89 0c-0.8,0 -1.34,-0.13 -1.62,-0.4 -0.27,-0.27 -0.41,-0.78 -0.41,-1.53l0 -4.32c0,-0.75 0.14,-1.26 0.41,-1.53 0.28,-0.27 0.82,-0.41 1.62,-0.41l4.89 0c0.79,0 1.33,0.14 1.61,0.41 0.28,0.27 0.42,0.78 0.42,1.53l0 0.77 -1.9 0.31 0 -1.56zm21.91 0l-5.15 0 0 5.19 5.15 0 0 -1.76 1.9 0.4 0 0.97c0,0.75 -0.14,1.26 -0.42,1.53 -0.28,0.27 -0.82,0.4 -1.61,0.4l-4.89 0c-0.8,0 -1.34,-0.13 -1.61,-0.4 -0.28,-0.27 -0.42,-0.78 -0.42,-1.53l0 -4.32c0,-0.75 0.14,-1.26 0.42,-1.53 0.27,-0.27 0.81,-0.41 1.61,-0.41l4.89 0c0.79,0 1.33,0.14 1.61,0.41 0.28,0.27 0.42,0.78 0.42,1.53l0 0.77 -1.9 0.31 0 -1.56zm14.86 0.48c0,-0.75 0.14,-1.26 0.42,-1.53 0.28,-0.27 0.81,-0.41 1.61,-0.41l6.03 0c0.8,0 1.34,0.14 1.62,0.41 0.28,0.27 0.42,0.78 0.42,1.53l0 4.32c0,0.75 -0.14,1.26 -0.42,1.53 -0.28,0.27 -0.82,0.4 -1.62,0.4l-6.03 0c-0.8,0 -1.33,-0.13 -1.61,-0.4 -0.28,-0.27 -0.42,-0.78 -0.42,-1.53l0 -4.32zm1.91 4.71l6.28 0 0 -5.19 -6.28 0 0 5.19zm23.31 -6.65l0 6.65 5.43 0 0 -6.65 1.9 0 0 6.26c0,0.75 -0.14,1.26 -0.42,1.53 -0.28,0.27 -0.82,0.4 -1.62,0.4l-5.17 0c-0.79,0 -1.32,-0.13 -1.61,-0.4 -0.28,-0.27 -0.42,-0.78 -0.42,-1.53l0 -6.26 1.91 0zm20.71 8.19l0 -8.19 1.3 0 5.77 4.83c0.19,0.16 0.37,0.31 0.52,0.45 0.15,0.15 0.28,0.29 0.41,0.44 -0.03,-0.46 -0.05,-0.78 -0.07,-0.97 -0.01,-0.2 -0.01,-0.34 -0.01,-0.45l0 -4.3 1.71 0 0 8.19 -1.3 0 -6.01 -5.06c-0.15,-0.13 -0.27,-0.24 -0.38,-0.35 -0.11,-0.1 -0.21,-0.21 -0.31,-0.31 0.03,0.25 0.05,0.49 0.06,0.71 0.02,0.23 0.02,0.42 0.02,0.59l0 4.42 -1.71 0zm26.82 -6.73l0 6.73 -1.91 0 0 -6.73 -3.76 0 0 -1.46 9.45 0 0 1.46 -3.78 0zm15.31 6.73l0 -8.19 1.91 0 0 8.19 -1.91 0zm15.28 0l0 -8.19 1.3 0 5.77 4.83c0.19,0.16 0.36,0.31 0.52,0.45 0.15,0.15 0.28,0.29 0.41,0.44 -0.03,-0.46 -0.06,-0.78 -0.07,-0.97 -0.01,-0.2 -0.01,-0.34 -0.01,-0.45l0 -4.3 1.71 0 0 8.19 -1.3 0 -6.02 -5.06c-0.14,-0.13 -0.27,-0.24 -0.37,-0.35 -0.11,-0.1 -0.21,-0.21 -0.31,-0.31 0.03,0.25 0.05,0.49 0.06,0.71 0.02,0.23 0.02,0.42 0.02,0.59l0 4.42 -1.71 0zm30.69 -6.73l-5.95 0 0 5.19 5.95 0 0 -1.82 -3.11 0 0 -1.4 4.97 0 0 2.83c0,0.75 -0.14,1.26 -0.42,1.53 -0.28,0.27 -0.82,0.4 -1.61,0.4l-5.66 0c-0.79,0 -1.33,-0.13 -1.61,-0.4 -0.28,-0.27 -0.42,-0.78 -0.42,-1.53l0 -4.32c0,-0.75 0.14,-1.25 0.42,-1.53 0.28,-0.27 0.82,-0.41 1.61,-0.41l5.66 0c0.78,0 1.32,0.14 1.6,0.4 0.29,0.27 0.43,0.76 0.43,1.46l0 0.19 -1.86 0.33 0 -0.92z"/>
  </g>
 </g>
</svg>
